<svg id="visual" viewBox="0 0 960 540" width="960" height="540" xmlns="http://www.w3.org/2000/svg" xmlns:xlink="http://www.w3.org/1999/xlink" version="1.1"><g stroke-width="1" stroke-linejoin="bevel"><path d="M517 281L527 298L544 295Z" fill="#6e4070" stroke="#6e4070"></path><path d="M563 311L564 300L544 295Z" fill="#904275" stroke="#904275"></path><path d="M544 295L535 237L517 281Z" fill="#e65457" stroke="#e65457"></path><path d="M527 298L563 311L544 295Z" fill="#b14472" stroke="#b14472"></path><path d="M590 275L535 237L544 295Z" fill="#cf4868" stroke="#cf4868"></path><path d="M563 311L590 275L564 300Z" fill="#f56841" stroke="#f56841"></path><path d="M564 300L590 275L544 295Z" fill="#252d3e" stroke="#252d3e"></path><path d="M515 379L470 376L484 384Z" fill="#6e4070" stroke="#6e4070"></path><path d="M527 298L526 368L563 311Z" fill="#cf4868" stroke="#cf4868"></path><path d="M563 311L644 316L590 275Z" fill="#6e4070" stroke="#6e4070"></path><path d="M535 237L458 238L517 281Z" fill="#904275" stroke="#904275"></path><path d="M515 379L526 368L470 376Z" fill="#6e4070" stroke="#6e4070"></path><path d="M431 281L527 298L517 281Z" fill="#e65457" stroke="#e65457"></path><path d="M442 173L444 238L458 238Z" fill="#6e4070" stroke="#6e4070"></path><path d="M458 238L431 281L517 281Z" fill="#1d2228" stroke="#1d2228"></path><path d="M434 257L431 281L458 238Z" fill="#904275" stroke="#904275"></path><path d="M444 238L434 257L458 238Z" fill="#f56841" stroke="#f56841"></path><path d="M590 275L588 186L535 237Z" fill="#4f3c65" stroke="#4f3c65"></path><path d="M535 237L442 173L458 238Z" fill="#f56841" stroke="#f56841"></path><path d="M434 257L421 282L431 281Z" fill="#363653" stroke="#363653"></path><path d="M470 376L526 368L527 298Z" fill="#904275" stroke="#904275"></path><path d="M470 376L527 298L431 281Z" fill="#6e4070" stroke="#6e4070"></path><path d="M435 367L470 376L431 281Z" fill="#363653" stroke="#363653"></path><path d="M581 403L563 311L526 368Z" fill="#252d3e" stroke="#252d3e"></path><path d="M581 403L644 316L563 311Z" fill="#4f3c65" stroke="#4f3c65"></path><path d="M590 275L659 246L588 186Z" fill="#6e4070" stroke="#6e4070"></path><path d="M644 316L650 271L590 275Z" fill="#4f3c65" stroke="#4f3c65"></path><path d="M435 367L462 386L470 376Z" fill="#363653" stroke="#363653"></path><path d="M470 376L462 386L484 384Z" fill="#904275" stroke="#904275"></path><path d="M484 384L495 403L515 379Z" fill="#363653" stroke="#363653"></path><path d="M557 421L581 403L526 368Z" fill="#4f3c65" stroke="#4f3c65"></path><path d="M479 415L495 403L484 384Z" fill="#cf4868" stroke="#cf4868"></path><path d="M421 360L435 367L431 281Z" fill="#1d2228" stroke="#1d2228"></path><path d="M557 421L526 368L515 379Z" fill="#363653" stroke="#363653"></path><path d="M682 291L659 246L650 271Z" fill="#363653" stroke="#363653"></path><path d="M650 271L659 246L590 275Z" fill="#cf4868" stroke="#cf4868"></path><path d="M434 257L406 249L421 282Z" fill="#252d3e" stroke="#252d3e"></path><path d="M392 326L421 360L431 281Z" fill="#cf4868" stroke="#cf4868"></path><path d="M444 238L406 249L434 257Z" fill="#e65457" stroke="#e65457"></path><path d="M400 220L406 249L444 238Z" fill="#b14472" stroke="#b14472"></path><path d="M581 403L657 333L644 316Z" fill="#f56841" stroke="#f56841"></path><path d="M644 316L671 296L650 271Z" fill="#cf4868" stroke="#cf4868"></path><path d="M392 326L431 281L421 282Z" fill="#e65457" stroke="#e65457"></path><path d="M417 399L479 415L462 386Z" fill="#1d2228" stroke="#1d2228"></path><path d="M657 333L671 296L644 316Z" fill="#363653" stroke="#363653"></path><path d="M495 403L557 421L515 379Z" fill="#4f3c65" stroke="#4f3c65"></path><path d="M462 386L479 415L484 384Z" fill="#f56841" stroke="#f56841"></path><path d="M495 403L474 465L557 421Z" fill="#f56841" stroke="#f56841"></path><path d="M418 386L462 386L435 367Z" fill="#363653" stroke="#363653"></path><path d="M463 144L442 173L535 237Z" fill="#b14472" stroke="#b14472"></path><path d="M673 194L608 159L588 186Z" fill="#e65457" stroke="#e65457"></path><path d="M569 129L463 144L535 237Z" fill="#fb8122" stroke="#fb8122"></path><path d="M442 173L400 220L444 238Z" fill="#4f3c65" stroke="#4f3c65"></path><path d="M380 316L392 326L421 282Z" fill="#252d3e" stroke="#252d3e"></path><path d="M380 316L421 282L374 301Z" fill="#1d2228" stroke="#1d2228"></path><path d="M392 326L400 347L421 360Z" fill="#1d2228" stroke="#1d2228"></path><path d="M421 360L418 386L435 367Z" fill="#fb8122" stroke="#fb8122"></path><path d="M657 333L682 291L671 296Z" fill="#fb8122" stroke="#fb8122"></path><path d="M671 296L682 291L650 271Z" fill="#fb8122" stroke="#fb8122"></path><path d="M463 144L432 168L442 173Z" fill="#b14472" stroke="#b14472"></path><path d="M442 173L432 168L400 220Z" fill="#b14472" stroke="#b14472"></path><path d="M400 347L418 386L421 360Z" fill="#cf4868" stroke="#cf4868"></path><path d="M569 129L535 237L588 186Z" fill="#e65457" stroke="#e65457"></path><path d="M374 301L421 282L406 249Z" fill="#363653" stroke="#363653"></path><path d="M343 352L362 382L400 347Z" fill="#f56841" stroke="#f56841"></path><path d="M362 382L417 399L418 386Z" fill="#fb8122" stroke="#fb8122"></path><path d="M608 159L569 129L588 186Z" fill="#e65457" stroke="#e65457"></path><path d="M673 194L622 151L608 159Z" fill="#252d3e" stroke="#252d3e"></path><path d="M608 159L622 151L569 129Z" fill="#fb8122" stroke="#fb8122"></path><path d="M673 194L588 186L659 246Z" fill="#f56841" stroke="#f56841"></path><path d="M347 231L374 301L406 249Z" fill="#cf4868" stroke="#cf4868"></path><path d="M362 382L418 386L400 347Z" fill="#1d2228" stroke="#1d2228"></path><path d="M418 386L417 399L462 386Z" fill="#6e4070" stroke="#6e4070"></path><path d="M693 221L673 194L659 246Z" fill="#fb8122" stroke="#fb8122"></path><path d="M680 384L679 362L657 333Z" fill="#904275" stroke="#904275"></path><path d="M657 333L679 362L682 291Z" fill="#cf4868" stroke="#cf4868"></path><path d="M680 384L657 333L581 403Z" fill="#b14472" stroke="#b14472"></path><path d="M717 229L693 221L682 291Z" fill="#363653" stroke="#363653"></path><path d="M682 291L693 221L659 246Z" fill="#b14472" stroke="#b14472"></path><path d="M377 189L377 206L400 220Z" fill="#6e4070" stroke="#6e4070"></path><path d="M400 220L347 231L406 249Z" fill="#f56841" stroke="#f56841"></path><path d="M377 189L400 220L432 168Z" fill="#904275" stroke="#904275"></path><path d="M678 409L680 384L581 403Z" fill="#1d2228" stroke="#1d2228"></path><path d="M679 362L720 293L682 291Z" fill="#252d3e" stroke="#252d3e"></path><path d="M408 126L377 189L432 168Z" fill="#f56841" stroke="#f56841"></path><path d="M377 206L347 231L400 220Z" fill="#904275" stroke="#904275"></path><path d="M515 75L532 98L565 62Z" fill="#6e4070" stroke="#6e4070"></path><path d="M569 129L532 98L463 144Z" fill="#363653" stroke="#363653"></path><path d="M463 144L427 123L432 168Z" fill="#b14472" stroke="#b14472"></path><path d="M615 471L618 448L588 492Z" fill="#252d3e" stroke="#252d3e"></path><path d="M557 421L618 448L581 403Z" fill="#252d3e" stroke="#252d3e"></path><path d="M793 351L720 293L679 362Z" fill="#4f3c65" stroke="#4f3c65"></path><path d="M406 436L474 465L479 415Z" fill="#252d3e" stroke="#252d3e"></path><path d="M479 415L474 465L495 403Z" fill="#b14472" stroke="#b14472"></path><path d="M720 293L717 229L682 291Z" fill="#b14472" stroke="#b14472"></path><path d="M693 221L717 186L673 194Z" fill="#363653" stroke="#363653"></path><path d="M673 194L674 105L622 151Z" fill="#904275" stroke="#904275"></path><path d="M515 75L427 123L463 144Z" fill="#4f3c65" stroke="#4f3c65"></path><path d="M618 448L678 409L581 403Z" fill="#4f3c65" stroke="#4f3c65"></path><path d="M680 384L793 351L679 362Z" fill="#1d2228" stroke="#1d2228"></path><path d="M357 169L347 231L377 206Z" fill="#b14472" stroke="#b14472"></path><path d="M343 352L392 326L380 316Z" fill="#6e4070" stroke="#6e4070"></path><path d="M343 352L400 347L392 326Z" fill="#363653" stroke="#363653"></path><path d="M417 399L406 436L479 415Z" fill="#b14472" stroke="#b14472"></path><path d="M343 352L380 316L374 301Z" fill="#363653" stroke="#363653"></path><path d="M362 382L406 436L417 399Z" fill="#6e4070" stroke="#6e4070"></path><path d="M350 138L408 126L355 67Z" fill="#904275" stroke="#904275"></path><path d="M427 123L408 126L432 168Z" fill="#b14472" stroke="#b14472"></path><path d="M377 189L357 169L377 206Z" fill="#f56841" stroke="#f56841"></path><path d="M406 436L466 473L474 465Z" fill="#4f3c65" stroke="#4f3c65"></path><path d="M588 492L618 448L557 421Z" fill="#cf4868" stroke="#cf4868"></path><path d="M265 335L343 352L374 301Z" fill="#f56841" stroke="#f56841"></path><path d="M567 494L557 421L474 465Z" fill="#1d2228" stroke="#1d2228"></path><path d="M618 448L695 433L678 409Z" fill="#e65457" stroke="#e65457"></path><path d="M740 177L717 186L748 182Z" fill="#4f3c65" stroke="#4f3c65"></path><path d="M717 229L717 186L693 221Z" fill="#6e4070" stroke="#6e4070"></path><path d="M565 62L532 98L569 129Z" fill="#e65457" stroke="#e65457"></path><path d="M565 62L569 129L588 57Z" fill="#1d2228" stroke="#1d2228"></path><path d="M532 98L515 75L463 144Z" fill="#252d3e" stroke="#252d3e"></path><path d="M408 126L357 169L377 189Z" fill="#cf4868" stroke="#cf4868"></path><path d="M717 186L710 166L673 194Z" fill="#b14472" stroke="#b14472"></path><path d="M717 186L717 176L710 166Z" fill="#1d2228" stroke="#1d2228"></path><path d="M740 177L717 176L717 186Z" fill="#4f3c65" stroke="#4f3c65"></path><path d="M542 540L567 494L501 540Z" fill="#252d3e" stroke="#252d3e"></path><path d="M567 494L588 492L557 421Z" fill="#252d3e" stroke="#252d3e"></path><path d="M615 471L695 433L618 448Z" fill="#6e4070" stroke="#6e4070"></path><path d="M678 409L695 433L680 384Z" fill="#b14472" stroke="#b14472"></path><path d="M679 524L695 433L615 471Z" fill="#b14472" stroke="#b14472"></path><path d="M357 169L320 221L347 231Z" fill="#1d2228" stroke="#1d2228"></path><path d="M347 231L320 221L374 301Z" fill="#363653" stroke="#363653"></path><path d="M605 58L569 129L622 151Z" fill="#904275" stroke="#904275"></path><path d="M677 93L674 105L771 135Z" fill="#904275" stroke="#904275"></path><path d="M710 166L674 105L673 194Z" fill="#fb8122" stroke="#fb8122"></path><path d="M674 105L658 93L622 151Z" fill="#f56841" stroke="#f56841"></path><path d="M748 182L717 186L717 229Z" fill="#f56841" stroke="#f56841"></path><path d="M717 176L740 177L710 166Z" fill="#363653" stroke="#363653"></path><path d="M605 58L588 57L569 129Z" fill="#6e4070" stroke="#6e4070"></path><path d="M408 126L350 138L357 169Z" fill="#e65457" stroke="#e65457"></path><path d="M357 169L268 182L320 221Z" fill="#fb8122" stroke="#fb8122"></path><path d="M328 93L350 138L355 67Z" fill="#fb8122" stroke="#fb8122"></path><path d="M677 93L651 79L658 93Z" fill="#f56841" stroke="#f56841"></path><path d="M658 93L651 79L622 151Z" fill="#904275" stroke="#904275"></path><path d="M677 93L658 93L674 105Z" fill="#4f3c65" stroke="#4f3c65"></path><path d="M310 385L362 382L343 352Z" fill="#6e4070" stroke="#6e4070"></path><path d="M310 385L341 420L362 382Z" fill="#b14472" stroke="#b14472"></path><path d="M362 382L341 420L406 436Z" fill="#e65457" stroke="#e65457"></path><path d="M406 436L438 504L466 473Z" fill="#f56841" stroke="#f56841"></path><path d="M651 79L605 58L622 151Z" fill="#4f3c65" stroke="#4f3c65"></path><path d="M770 191L748 182L717 229Z" fill="#cf4868" stroke="#cf4868"></path><path d="M771 135L674 105L710 166Z" fill="#1d2228" stroke="#1d2228"></path><path d="M770 191L717 229L817 278Z" fill="#6e4070" stroke="#6e4070"></path><path d="M771 135L710 166L740 177Z" fill="#b14472" stroke="#b14472"></path><path d="M432 514L438 504L406 436Z" fill="#4f3c65" stroke="#4f3c65"></path><path d="M501 540L567 494L474 465Z" fill="#f56841" stroke="#f56841"></path><path d="M588 57L574 45L565 62Z" fill="#4f3c65" stroke="#4f3c65"></path><path d="M565 62L510 7L515 75Z" fill="#b14472" stroke="#b14472"></path><path d="M515 75L480 0L427 123Z" fill="#252d3e" stroke="#252d3e"></path><path d="M591 47L574 45L588 57Z" fill="#252d3e" stroke="#252d3e"></path><path d="M578 33L602 0L576 0Z" fill="#1d2228" stroke="#1d2228"></path><path d="M605 58L591 47L588 57Z" fill="#363653" stroke="#363653"></path><path d="M265 335L310 385L343 352Z" fill="#4f3c65" stroke="#4f3c65"></path><path d="M428 519L432 514L406 436Z" fill="#904275" stroke="#904275"></path><path d="M501 540L474 465L466 473Z" fill="#f56841" stroke="#f56841"></path><path d="M567 494L570 540L588 492Z" fill="#904275" stroke="#904275"></path><path d="M591 47L578 33L574 45Z" fill="#1d2228" stroke="#1d2228"></path><path d="M525 0L510 7L565 62Z" fill="#b14472" stroke="#b14472"></path><path d="M578 33L591 47L602 0Z" fill="#4f3c65" stroke="#4f3c65"></path><path d="M591 47L605 58L602 0Z" fill="#cf4868" stroke="#cf4868"></path><path d="M817 278L717 229L720 293Z" fill="#904275" stroke="#904275"></path><path d="M779 148L771 135L740 177Z" fill="#6e4070" stroke="#6e4070"></path><path d="M501 540L466 473L438 504Z" fill="#904275" stroke="#904275"></path><path d="M588 492L609 540L615 471Z" fill="#1d2228" stroke="#1d2228"></path><path d="M341 463L428 519L406 436Z" fill="#fb8122" stroke="#fb8122"></path><path d="M432 514L501 540L438 504Z" fill="#b14472" stroke="#b14472"></path><path d="M341 463L406 436L341 420Z" fill="#252d3e" stroke="#252d3e"></path><path d="M439 555L501 540L432 514Z" fill="#6e4070" stroke="#6e4070"></path><path d="M542 540L570 540L567 494Z" fill="#f56841" stroke="#f56841"></path><path d="M274 407L341 463L341 420Z" fill="#e65457" stroke="#e65457"></path><path d="M570 540L609 540L588 492Z" fill="#4f3c65" stroke="#4f3c65"></path><path d="M798 373L680 384L695 433Z" fill="#fb8122" stroke="#fb8122"></path><path d="M798 373L793 351L680 384Z" fill="#363653" stroke="#363653"></path><path d="M221 278L265 335L320 221Z" fill="#904275" stroke="#904275"></path><path d="M320 221L265 335L374 301Z" fill="#f56841" stroke="#f56841"></path><path d="M310 385L274 407L341 420Z" fill="#4f3c65" stroke="#4f3c65"></path><path d="M525 0L565 62L574 45Z" fill="#4f3c65" stroke="#4f3c65"></path><path d="M355 67L408 126L427 123Z" fill="#f56841" stroke="#f56841"></path><path d="M350 138L268 182L357 169Z" fill="#1d2228" stroke="#1d2228"></path><path d="M773 461L798 373L695 433Z" fill="#b14472" stroke="#b14472"></path><path d="M779 148L748 182L770 191Z" fill="#363653" stroke="#363653"></path><path d="M373 1L355 67L427 123Z" fill="#b14472" stroke="#b14472"></path><path d="M779 148L740 177L748 182Z" fill="#6e4070" stroke="#6e4070"></path><path d="M602 0L605 58L651 79Z" fill="#f56841" stroke="#f56841"></path><path d="M811 319L720 293L793 351Z" fill="#e65457" stroke="#e65457"></path><path d="M843 324L811 319L841 344Z" fill="#363653" stroke="#363653"></path><path d="M842 159L779 148L770 191Z" fill="#f56841" stroke="#f56841"></path><path d="M265 335L269 378L310 385Z" fill="#cf4868" stroke="#cf4868"></path><path d="M609 540L679 524L615 471Z" fill="#904275" stroke="#904275"></path><path d="M576 0L525 0L578 33Z" fill="#904275" stroke="#904275"></path><path d="M578 33L525 0L574 45Z" fill="#6e4070" stroke="#6e4070"></path><path d="M510 7L480 0L515 75Z" fill="#b14472" stroke="#b14472"></path><path d="M525 0L523 0L510 7Z" fill="#4f3c65" stroke="#4f3c65"></path><path d="M523 0L519 0L510 7Z" fill="#4f3c65" stroke="#4f3c65"></path><path d="M293 86L268 182L350 138Z" fill="#904275" stroke="#904275"></path><path d="M811 319L817 278L720 293Z" fill="#1d2228" stroke="#1d2228"></path><path d="M602 0L651 79L735 0Z" fill="#fb8122" stroke="#fb8122"></path><path d="M268 182L258 204L320 221Z" fill="#363653" stroke="#363653"></path><path d="M269 378L274 407L310 385Z" fill="#1d2228" stroke="#1d2228"></path><path d="M428 519L439 555L432 514Z" fill="#363653" stroke="#363653"></path><path d="M501 540L439 555L542 540Z" fill="#4f3c65" stroke="#4f3c65"></path><path d="M542 540L439 555L570 540Z" fill="#904275" stroke="#904275"></path><path d="M570 540L439 555L609 540Z" fill="#252d3e" stroke="#252d3e"></path><path d="M349 540L439 555L428 519Z" fill="#cf4868" stroke="#cf4868"></path><path d="M349 540L428 519L341 463Z" fill="#b14472" stroke="#b14472"></path><path d="M519 0L480 0L510 7Z" fill="#e65457" stroke="#e65457"></path><path d="M735 0L651 79L677 93Z" fill="#e65457" stroke="#e65457"></path><path d="M355 67L334 65L328 93Z" fill="#f56841" stroke="#f56841"></path><path d="M328 93L293 86L350 138Z" fill="#b14472" stroke="#b14472"></path><path d="M348 51L334 65L355 67Z" fill="#4f3c65" stroke="#4f3c65"></path><path d="M373 1L348 51L355 67Z" fill="#f56841" stroke="#f56841"></path><path d="M760 514L773 461L695 433Z" fill="#e65457" stroke="#e65457"></path><path d="M609 540L691 540L679 524Z" fill="#252d3e" stroke="#252d3e"></path><path d="M679 524L760 514L695 433Z" fill="#363653" stroke="#363653"></path><path d="M723 546L691 540L609 540Z" fill="#252d3e" stroke="#252d3e"></path><path d="M843 324L835 285L811 319Z" fill="#4f3c65" stroke="#4f3c65"></path><path d="M811 319L835 285L817 278Z" fill="#363653" stroke="#363653"></path><path d="M878 230L842 159L770 191Z" fill="#cf4868" stroke="#cf4868"></path><path d="M811 319L793 351L841 344Z" fill="#363653" stroke="#363653"></path><path d="M523 0L564 -21L519 0Z" fill="#1d2228" stroke="#1d2228"></path><path d="M519 0L564 -21L480 0Z" fill="#cf4868" stroke="#cf4868"></path><path d="M525 0L564 -21L523 0Z" fill="#363653" stroke="#363653"></path><path d="M576 0L564 -21L525 0Z" fill="#252d3e" stroke="#252d3e"></path><path d="M602 0L564 -21L576 0Z" fill="#4f3c65" stroke="#4f3c65"></path><path d="M292 81L293 86L328 93Z" fill="#363653" stroke="#363653"></path><path d="M199 198L198 237L258 204Z" fill="#b14472" stroke="#b14472"></path><path d="M292 81L328 93L334 65Z" fill="#6e4070" stroke="#6e4070"></path><path d="M198 237L221 278L258 204Z" fill="#fb8122" stroke="#fb8122"></path><path d="M258 204L221 278L320 221Z" fill="#f56841" stroke="#f56841"></path><path d="M228 388L239 396L269 378Z" fill="#4f3c65" stroke="#4f3c65"></path><path d="M269 378L239 396L274 407Z" fill="#fb8122" stroke="#fb8122"></path><path d="M841 344L793 351L798 373Z" fill="#f56841" stroke="#f56841"></path><path d="M866 453L841 344L798 373Z" fill="#1d2228" stroke="#1d2228"></path><path d="M313 37L292 81L334 65Z" fill="#1d2228" stroke="#1d2228"></path><path d="M184 132L199 198L268 182Z" fill="#1d2228" stroke="#1d2228"></path><path d="M228 388L269 378L265 335Z" fill="#363653" stroke="#363653"></path><path d="M341 540L349 540L341 463Z" fill="#cf4868" stroke="#cf4868"></path><path d="M341 540L341 463L304 540Z" fill="#252d3e" stroke="#252d3e"></path><path d="M779 148L799 110L771 135Z" fill="#b14472" stroke="#b14472"></path><path d="M771 135L799 110L677 93Z" fill="#252d3e" stroke="#252d3e"></path><path d="M842 159L799 110L779 148Z" fill="#1d2228" stroke="#1d2228"></path><path d="M236 446L341 463L274 407Z" fill="#b14472" stroke="#b14472"></path><path d="M349 540L282 548L439 555Z" fill="#1d2228" stroke="#1d2228"></path><path d="M206 312L228 388L265 335Z" fill="#252d3e" stroke="#252d3e"></path><path d="M239 396L236 446L274 407Z" fill="#1d2228" stroke="#1d2228"></path><path d="M723 546L760 514L679 524Z" fill="#252d3e" stroke="#252d3e"></path><path d="M773 461L820 454L798 373Z" fill="#b14472" stroke="#b14472"></path><path d="M480 0L373 1L427 123Z" fill="#363653" stroke="#363653"></path><path d="M348 51L313 37L334 65Z" fill="#f56841" stroke="#f56841"></path><path d="M370 0L373 1L480 0Z" fill="#f56841" stroke="#f56841"></path><path d="M691 540L723 546L679 524Z" fill="#f56841" stroke="#f56841"></path><path d="M439 555L723 546L609 540Z" fill="#b14472" stroke="#b14472"></path><path d="M352 -5L370 0L480 0Z" fill="#f56841" stroke="#f56841"></path><path d="M373 1L370 0L348 51Z" fill="#b14472" stroke="#b14472"></path><path d="M194 308L206 312L221 278Z" fill="#6e4070" stroke="#6e4070"></path><path d="M221 278L206 312L265 335Z" fill="#f56841" stroke="#f56841"></path><path d="M346 0L313 37L348 51Z" fill="#f56841" stroke="#f56841"></path><path d="M878 230L817 278L835 285Z" fill="#1d2228" stroke="#1d2228"></path><path d="M878 230L770 191L817 278Z" fill="#b14472" stroke="#b14472"></path><path d="M723 546L745 540L760 514Z" fill="#f56841" stroke="#f56841"></path><path d="M823 457L773 461L818 525Z" fill="#363653" stroke="#363653"></path><path d="M823 457L820 454L773 461Z" fill="#6e4070" stroke="#6e4070"></path><path d="M818 525L773 461L760 514Z" fill="#1d2228" stroke="#1d2228"></path><path d="M920 388L885 340L841 344Z" fill="#fb8122" stroke="#fb8122"></path><path d="M268 182L293 86L230 88Z" fill="#b14472" stroke="#b14472"></path><path d="M199 198L258 204L268 182Z" fill="#6e4070" stroke="#6e4070"></path><path d="M291 0L283 55L313 37Z" fill="#e65457" stroke="#e65457"></path><path d="M313 37L283 55L292 81Z" fill="#f56841" stroke="#f56841"></path><path d="M206 418L239 396L228 388Z" fill="#fb8122" stroke="#fb8122"></path><path d="M206 418L236 446L239 396Z" fill="#4f3c65" stroke="#4f3c65"></path><path d="M352 -5L346 0L370 0Z" fill="#4f3c65" stroke="#4f3c65"></path><path d="M370 0L346 0L348 51Z" fill="#6e4070" stroke="#6e4070"></path><path d="M191 276L194 308L221 278Z" fill="#fb8122" stroke="#fb8122"></path><path d="M206 312L181 354L228 388Z" fill="#f56841" stroke="#f56841"></path><path d="M564 -21L352 -5L480 0Z" fill="#cf4868" stroke="#cf4868"></path><path d="M198 237L191 276L221 278Z" fill="#6e4070" stroke="#6e4070"></path><path d="M287 540L304 540L341 463Z" fill="#6e4070" stroke="#6e4070"></path><path d="M341 540L282 548L349 540Z" fill="#4f3c65" stroke="#4f3c65"></path><path d="M240 80L293 86L292 81Z" fill="#904275" stroke="#904275"></path><path d="M198 237L172 222L191 276Z" fill="#4f3c65" stroke="#4f3c65"></path><path d="M723 546L764 540L745 540Z" fill="#e65457" stroke="#e65457"></path><path d="M745 540L764 540L760 514Z" fill="#b14472" stroke="#b14472"></path><path d="M750 0L735 0L799 110Z" fill="#b14472" stroke="#b14472"></path><path d="M799 110L735 0L677 93Z" fill="#4f3c65" stroke="#4f3c65"></path><path d="M602 0L752 -49L564 -21Z" fill="#4f3c65" stroke="#4f3c65"></path><path d="M885 340L881 294L843 324Z" fill="#b14472" stroke="#b14472"></path><path d="M843 324L881 294L835 285Z" fill="#cf4868" stroke="#cf4868"></path><path d="M885 340L843 324L841 344Z" fill="#4f3c65" stroke="#4f3c65"></path><path d="M881 294L878 230L835 285Z" fill="#e65457" stroke="#e65457"></path><path d="M186 411L206 418L228 388Z" fill="#b14472" stroke="#b14472"></path><path d="M236 446L287 540L341 463Z" fill="#cf4868" stroke="#cf4868"></path><path d="M894 175L851 126L842 159Z" fill="#f56841" stroke="#f56841"></path><path d="M842 159L851 126L799 110Z" fill="#cf4868" stroke="#cf4868"></path><path d="M282 548L287 540L255 540Z" fill="#f56841" stroke="#f56841"></path><path d="M304 540L282 548L341 540Z" fill="#f56841" stroke="#f56841"></path><path d="M866 453L798 373L820 454Z" fill="#b14472" stroke="#b14472"></path><path d="M881 294L893 286L878 230Z" fill="#fb8122" stroke="#fb8122"></path><path d="M240 76L292 81L283 55Z" fill="#b14472" stroke="#b14472"></path><path d="M240 76L240 80L292 81Z" fill="#4f3c65" stroke="#4f3c65"></path><path d="M240 76L283 55L245 23Z" fill="#904275" stroke="#904275"></path><path d="M788 -23L750 0L843 0Z" fill="#4f3c65" stroke="#4f3c65"></path><path d="M735 0L752 -49L602 0Z" fill="#fb8122" stroke="#fb8122"></path><path d="M291 0L313 37L346 0Z" fill="#fb8122" stroke="#fb8122"></path><path d="M240 80L230 88L293 86Z" fill="#b14472" stroke="#b14472"></path><path d="M146 309L181 354L194 308Z" fill="#cf4868" stroke="#cf4868"></path><path d="M194 308L181 354L206 312Z" fill="#b14472" stroke="#b14472"></path><path d="M146 286L194 308L191 276Z" fill="#363653" stroke="#363653"></path><path d="M885 340L893 286L881 294Z" fill="#6e4070" stroke="#6e4070"></path><path d="M878 230L894 175L842 159Z" fill="#b14472" stroke="#b14472"></path><path d="M240 76L230 88L240 80Z" fill="#fb8122" stroke="#fb8122"></path><path d="M255 540L287 540L236 446Z" fill="#6e4070" stroke="#6e4070"></path><path d="M287 540L282 548L304 540Z" fill="#cf4868" stroke="#cf4868"></path><path d="M155 168L172 222L199 198Z" fill="#4f3c65" stroke="#4f3c65"></path><path d="M199 198L172 222L198 237Z" fill="#fb8122" stroke="#fb8122"></path><path d="M181 354L186 411L228 388Z" fill="#363653" stroke="#363653"></path><path d="M206 418L215 506L236 446Z" fill="#cf4868" stroke="#cf4868"></path><path d="M352 -5L291 0L346 0Z" fill="#4f3c65" stroke="#4f3c65"></path><path d="M154 67L184 132L230 88Z" fill="#363653" stroke="#363653"></path><path d="M823 457L866 453L820 454Z" fill="#1d2228" stroke="#1d2228"></path><path d="M847 488L866 453L823 457Z" fill="#fb8122" stroke="#fb8122"></path><path d="M764 540L818 525L760 514Z" fill="#cf4868" stroke="#cf4868"></path><path d="M818 525L847 488L823 457Z" fill="#904275" stroke="#904275"></path><path d="M904 170L894 175L948 222Z" fill="#4f3c65" stroke="#4f3c65"></path><path d="M851 126L861 87L799 110Z" fill="#252d3e" stroke="#252d3e"></path><path d="M904 170L864 99L851 126Z" fill="#1d2228" stroke="#1d2228"></path><path d="M215 506L255 540L236 446Z" fill="#4f3c65" stroke="#4f3c65"></path><path d="M154 67L230 88L240 76Z" fill="#904275" stroke="#904275"></path><path d="M230 88L184 132L268 182Z" fill="#1d2228" stroke="#1d2228"></path><path d="M876 32L861 87L906 71Z" fill="#363653" stroke="#363653"></path><path d="M864 99L861 87L851 126Z" fill="#6e4070" stroke="#6e4070"></path><path d="M818 525L842 512L847 488Z" fill="#cf4868" stroke="#cf4868"></path><path d="M847 488L899 481L866 453Z" fill="#b14472" stroke="#b14472"></path><path d="M131 269L146 286L191 276Z" fill="#4f3c65" stroke="#4f3c65"></path><path d="M116 390L138 424L186 411Z" fill="#6e4070" stroke="#6e4070"></path><path d="M131 269L191 276L172 222Z" fill="#cf4868" stroke="#cf4868"></path><path d="M948 222L894 175L878 230Z" fill="#b14472" stroke="#b14472"></path><path d="M894 175L904 170L851 126Z" fill="#1d2228" stroke="#1d2228"></path><path d="M146 286L146 309L194 308Z" fill="#904275" stroke="#904275"></path><path d="M291 0L245 23L283 55Z" fill="#904275" stroke="#904275"></path><path d="M124 451L215 506L186 411Z" fill="#6e4070" stroke="#6e4070"></path><path d="M186 411L215 506L206 418Z" fill="#f56841" stroke="#f56841"></path><path d="M764 540L832 540L818 525Z" fill="#b14472" stroke="#b14472"></path><path d="M818 525L832 540L842 512Z" fill="#1d2228" stroke="#1d2228"></path><path d="M925 462L920 388L866 453Z" fill="#363653" stroke="#363653"></path><path d="M960 582L832 540L764 540Z" fill="#b14472" stroke="#b14472"></path><path d="M155 146L155 168L184 132Z" fill="#252d3e" stroke="#252d3e"></path><path d="M184 132L155 168L199 198Z" fill="#f56841" stroke="#f56841"></path><path d="M760 -50L752 -49L750 0Z" fill="#e65457" stroke="#e65457"></path><path d="M750 0L752 -49L735 0Z" fill="#904275" stroke="#904275"></path><path d="M564 -21L257 -20L352 -5Z" fill="#e65457" stroke="#e65457"></path><path d="M352 -5L257 -20L291 0Z" fill="#fb8122" stroke="#fb8122"></path><path d="M843 0L750 0L799 110Z" fill="#363653" stroke="#363653"></path><path d="M899 481L847 488L842 512Z" fill="#904275" stroke="#904275"></path><path d="M866 453L920 388L841 344Z" fill="#cf4868" stroke="#cf4868"></path><path d="M885 340L957 312L893 286Z" fill="#252d3e" stroke="#252d3e"></path><path d="M893 286L948 225L878 230Z" fill="#252d3e" stroke="#252d3e"></path><path d="M126 118L155 146L184 132Z" fill="#904275" stroke="#904275"></path><path d="M87 207L131 269L172 222Z" fill="#252d3e" stroke="#252d3e"></path><path d="M84 275L131 269L87 207Z" fill="#4f3c65" stroke="#4f3c65"></path><path d="M146 286L131 269L146 309Z" fill="#6e4070" stroke="#6e4070"></path><path d="M116 390L186 411L181 354Z" fill="#cf4868" stroke="#cf4868"></path><path d="M788 -23L760 -50L750 0Z" fill="#4f3c65" stroke="#4f3c65"></path><path d="M140 -43L257 -20L564 -21Z" fill="#904275" stroke="#904275"></path><path d="M126 118L146 151L155 146Z" fill="#1d2228" stroke="#1d2228"></path><path d="M155 146L146 151L155 168Z" fill="#cf4868" stroke="#cf4868"></path><path d="M291 0L257 -20L245 23Z" fill="#e65457" stroke="#e65457"></path><path d="M245 23L154 67L240 76Z" fill="#f56841" stroke="#f56841"></path><path d="M140 -43L564 -21L752 -49Z" fill="#363653" stroke="#363653"></path><path d="M918 540L899 481L842 512Z" fill="#fb8122" stroke="#fb8122"></path><path d="M960 236L948 225L893 286Z" fill="#1d2228" stroke="#1d2228"></path><path d="M876 32L843 0L861 87Z" fill="#e65457" stroke="#e65457"></path><path d="M948 225L948 222L878 230Z" fill="#cf4868" stroke="#cf4868"></path><path d="M116 390L181 354L146 309Z" fill="#363653" stroke="#363653"></path><path d="M861 87L843 0L799 110Z" fill="#b14472" stroke="#b14472"></path><path d="M788 -23L960 -48L760 -50Z" fill="#4f3c65" stroke="#4f3c65"></path><path d="M861 87L864 99L906 71Z" fill="#363653" stroke="#363653"></path><path d="M960 337L885 340L920 388Z" fill="#cf4868" stroke="#cf4868"></path><path d="M960 337L957 312L885 340Z" fill="#363653" stroke="#363653"></path><path d="M948 225L960 236L948 222Z" fill="#363653" stroke="#363653"></path><path d="M906 71L864 99L904 170Z" fill="#fb8122" stroke="#fb8122"></path><path d="M960 167L906 71L904 170Z" fill="#6e4070" stroke="#6e4070"></path><path d="M957 312L960 236L893 286Z" fill="#363653" stroke="#363653"></path><path d="M948 222L960 185L904 170Z" fill="#cf4868" stroke="#cf4868"></path><path d="M960 372L960 337L920 388Z" fill="#6e4070" stroke="#6e4070"></path><path d="M957 312L960 337L960 236Z" fill="#cf4868" stroke="#cf4868"></path><path d="M86 326L116 390L146 309Z" fill="#b14472" stroke="#b14472"></path><path d="M960 479L925 462L899 481Z" fill="#6e4070" stroke="#6e4070"></path><path d="M899 481L925 462L866 453Z" fill="#252d3e" stroke="#252d3e"></path><path d="M960 422L960 372L920 388Z" fill="#b14472" stroke="#b14472"></path><path d="M181 -8L154 67L245 23Z" fill="#fb8122" stroke="#fb8122"></path><path d="M87 207L172 222L155 168Z" fill="#363653" stroke="#363653"></path><path d="M84 275L86 326L146 309Z" fill="#f56841" stroke="#f56841"></path><path d="M960 236L960 185L948 222Z" fill="#1d2228" stroke="#1d2228"></path><path d="M154 67L144 81L184 132Z" fill="#fb8122" stroke="#fb8122"></path><path d="M144 81L126 118L184 132Z" fill="#4f3c65" stroke="#4f3c65"></path><path d="M960 185L960 176L904 170Z" fill="#fb8122" stroke="#fb8122"></path><path d="M960 35L910 54L906 71Z" fill="#252d3e" stroke="#252d3e"></path><path d="M906 71L910 54L876 32Z" fill="#cf4868" stroke="#cf4868"></path><path d="M876 32L894 0L843 0Z" fill="#1d2228" stroke="#1d2228"></path><path d="M95 420L124 451L138 424Z" fill="#363653" stroke="#363653"></path><path d="M138 424L124 451L186 411Z" fill="#904275" stroke="#904275"></path><path d="M215 506L168 540L255 540Z" fill="#b14472" stroke="#b14472"></path><path d="M960 176L960 167L904 170Z" fill="#363653" stroke="#363653"></path><path d="M166 540L168 540L119 485Z" fill="#b14472" stroke="#b14472"></path><path d="M255 540L168 540L282 548Z" fill="#cf4868" stroke="#cf4868"></path><path d="M119 485L168 540L215 506Z" fill="#1d2228" stroke="#1d2228"></path><path d="M168 540L0 559L282 548Z" fill="#904275" stroke="#904275"></path><path d="M925 462L960 422L920 388Z" fill="#6e4070" stroke="#6e4070"></path><path d="M84 275L146 309L131 269Z" fill="#f56841" stroke="#f56841"></path><path d="M116 390L95 420L138 424Z" fill="#6e4070" stroke="#6e4070"></path><path d="M87 207L155 168L146 151Z" fill="#4f3c65" stroke="#4f3c65"></path><path d="M66 140L87 207L146 151Z" fill="#4f3c65" stroke="#4f3c65"></path><path d="M144 81L137 55L126 118Z" fill="#4f3c65" stroke="#4f3c65"></path><path d="M66 140L51 210L87 207Z" fill="#1d2228" stroke="#1d2228"></path><path d="M154 67L137 55L144 81Z" fill="#cf4868" stroke="#cf4868"></path><path d="M257 -20L181 -8L245 23Z" fill="#f56841" stroke="#f56841"></path><path d="M181 -8L137 55L154 67Z" fill="#b14472" stroke="#b14472"></path><path d="M919 17L876 32L910 54Z" fill="#fb8122" stroke="#fb8122"></path><path d="M919 17L894 0L876 32Z" fill="#fb8122" stroke="#fb8122"></path><path d="M843 0L960 -48L788 -23Z" fill="#252d3e" stroke="#252d3e"></path><path d="M45 363L95 420L116 390Z" fill="#fb8122" stroke="#fb8122"></path><path d="M124 451L119 485L215 506Z" fill="#904275" stroke="#904275"></path><path d="M106 459L119 485L124 451Z" fill="#904275" stroke="#904275"></path><path d="M95 420L106 459L124 451Z" fill="#4f3c65" stroke="#4f3c65"></path><path d="M960 582L918 540L832 540Z" fill="#4f3c65" stroke="#4f3c65"></path><path d="M832 540L918 540L842 512Z" fill="#1d2228" stroke="#1d2228"></path><path d="M925 462L960 479L960 422Z" fill="#e65457" stroke="#e65457"></path><path d="M948 540L918 540L960 582Z" fill="#fb8122" stroke="#fb8122"></path><path d="M960 35L919 17L910 54Z" fill="#cf4868" stroke="#cf4868"></path><path d="M918 540L960 479L899 481Z" fill="#904275" stroke="#904275"></path><path d="M919 17L914 0L894 0Z" fill="#fb8122" stroke="#fb8122"></path><path d="M894 0L960 -48L843 0Z" fill="#252d3e" stroke="#252d3e"></path><path d="M84 275L61 331L86 326Z" fill="#904275" stroke="#904275"></path><path d="M86 326L45 363L116 390Z" fill="#363653" stroke="#363653"></path><path d="M36 440L91 505L106 459Z" fill="#363653" stroke="#363653"></path><path d="M0 250L61 331L84 275Z" fill="#b14472" stroke="#b14472"></path><path d="M181 -8L137 0L137 55Z" fill="#6e4070" stroke="#6e4070"></path><path d="M66 140L146 151L126 118Z" fill="#363653" stroke="#363653"></path><path d="M66 140L126 118L28 81Z" fill="#4f3c65" stroke="#4f3c65"></path><path d="M87 207L51 210L84 275Z" fill="#cf4868" stroke="#cf4868"></path><path d="M960 540L948 540L960 582Z" fill="#252d3e" stroke="#252d3e"></path><path d="M918 540L948 540L960 479Z" fill="#1d2228" stroke="#1d2228"></path><path d="M28 81L126 118L137 55Z" fill="#363653" stroke="#363653"></path><path d="M960 540L985 469L960 479Z" fill="#b14472" stroke="#b14472"></path><path d="M960 479L985 469L960 422Z" fill="#363653" stroke="#363653"></path><path d="M960 422L985 469L960 372Z" fill="#e65457" stroke="#e65457"></path><path d="M960 372L985 469L960 337Z" fill="#cf4868" stroke="#cf4868"></path><path d="M960 337L985 469L960 236Z" fill="#363653" stroke="#363653"></path><path d="M960 236L985 469L960 185Z" fill="#4f3c65" stroke="#4f3c65"></path><path d="M960 185L985 469L960 176Z" fill="#6e4070" stroke="#6e4070"></path><path d="M960 176L985 469L960 167Z" fill="#b14472" stroke="#b14472"></path><path d="M960 167L960 35L906 71Z" fill="#6e4070" stroke="#6e4070"></path><path d="M919 17L953 0L914 0Z" fill="#904275" stroke="#904275"></path><path d="M985 469L960 35L960 167Z" fill="#e65457" stroke="#e65457"></path><path d="M7 383L45 363L0 368Z" fill="#cf4868" stroke="#cf4868"></path><path d="M61 331L45 363L86 326Z" fill="#e65457" stroke="#e65457"></path><path d="M106 459L91 505L119 485Z" fill="#363653" stroke="#363653"></path><path d="M36 440L106 459L95 420Z" fill="#cf4868" stroke="#cf4868"></path><path d="M119 485L91 505L166 540Z" fill="#904275" stroke="#904275"></path><path d="M960 582L764 540L723 546Z" fill="#f56841" stroke="#f56841"></path><path d="M948 540L960 540L960 479Z" fill="#1d2228" stroke="#1d2228"></path><path d="M960 35L953 0L919 17Z" fill="#363653" stroke="#363653"></path><path d="M914 0L960 -48L894 0Z" fill="#f56841" stroke="#f56841"></path><path d="M181 -8L140 -43L137 0Z" fill="#f56841" stroke="#f56841"></path><path d="M137 0L82 0L137 55Z" fill="#cf4868" stroke="#cf4868"></path><path d="M257 -20L140 -43L181 -8Z" fill="#252d3e" stroke="#252d3e"></path><path d="M760 -50L140 -43L752 -49Z" fill="#904275" stroke="#904275"></path><path d="M985 469L960 0L960 35Z" fill="#904275" stroke="#904275"></path><path d="M960 35L960 0L953 0Z" fill="#fb8122" stroke="#fb8122"></path><path d="M953 0L960 -48L914 0Z" fill="#1d2228" stroke="#1d2228"></path><path d="M59 528L83 540L91 505Z" fill="#e65457" stroke="#e65457"></path><path d="M91 505L83 540L166 540Z" fill="#904275" stroke="#904275"></path><path d="M166 540L0 559L168 540Z" fill="#1d2228" stroke="#1d2228"></path><path d="M282 548L0 559L439 555Z" fill="#6e4070" stroke="#6e4070"></path><path d="M439 555L960 582L723 546Z" fill="#1d2228" stroke="#1d2228"></path><path d="M960 540L960 582L985 469Z" fill="#1d2228" stroke="#1d2228"></path><path d="M0 559L960 582L439 555Z" fill="#cf4868" stroke="#cf4868"></path><path d="M45 363L36 440L95 420Z" fill="#b14472" stroke="#b14472"></path><path d="M7 383L36 440L45 363Z" fill="#6e4070" stroke="#6e4070"></path><path d="M0 190L12 237L51 210Z" fill="#363653" stroke="#363653"></path><path d="M51 210L12 237L84 275Z" fill="#cf4868" stroke="#cf4868"></path><path d="M0 250L12 237L0 190Z" fill="#904275" stroke="#904275"></path><path d="M140 -43L82 0L137 0Z" fill="#b14472" stroke="#b14472"></path><path d="M36 440L59 528L91 505Z" fill="#1d2228" stroke="#1d2228"></path><path d="M0 190L51 210L66 140Z" fill="#cf4868" stroke="#cf4868"></path><path d="M12 237L0 250L84 275Z" fill="#6e4070" stroke="#6e4070"></path><path d="M0 342L45 363L61 331Z" fill="#b14472" stroke="#b14472"></path><path d="M43 534L53 540L59 528Z" fill="#fb8122" stroke="#fb8122"></path><path d="M0 250L0 342L61 331Z" fill="#b14472" stroke="#b14472"></path><path d="M0 342L0 368L45 363Z" fill="#4f3c65" stroke="#4f3c65"></path><path d="M7 383L0 385L36 440Z" fill="#6e4070" stroke="#6e4070"></path><path d="M985 469L960 -48L960 0Z" fill="#4f3c65" stroke="#4f3c65"></path><path d="M960 0L960 -48L953 0Z" fill="#6e4070" stroke="#6e4070"></path><path d="M0 140L0 190L66 140Z" fill="#e65457" stroke="#e65457"></path><path d="M0 368L0 379L7 383Z" fill="#cf4868" stroke="#cf4868"></path><path d="M0 379L0 385L7 383Z" fill="#e65457" stroke="#e65457"></path><path d="M82 0L28 81L137 55Z" fill="#b14472" stroke="#b14472"></path><path d="M43 534L59 528L36 440Z" fill="#904275" stroke="#904275"></path><path d="M59 528L53 540L83 540Z" fill="#904275" stroke="#904275"></path><path d="M83 540L0 559L166 540Z" fill="#1d2228" stroke="#1d2228"></path><path d="M0 540L43 534L36 440Z" fill="#252d3e" stroke="#252d3e"></path><path d="M0 114L0 140L66 140Z" fill="#1d2228" stroke="#1d2228"></path><path d="M0 99L0 114L28 81Z" fill="#b14472" stroke="#b14472"></path><path d="M28 81L0 114L66 140Z" fill="#6e4070" stroke="#6e4070"></path><path d="M-6 35L0 99L28 81Z" fill="#363653" stroke="#363653"></path><path d="M140 -43L44 0L82 0Z" fill="#6e4070" stroke="#6e4070"></path><path d="M82 0L44 0L28 81Z" fill="#e65457" stroke="#e65457"></path><path d="M0 385L0 540L36 440Z" fill="#e65457" stroke="#e65457"></path><path d="M43 534L0 559L53 540Z" fill="#1d2228" stroke="#1d2228"></path><path d="M53 540L0 559L83 540Z" fill="#4f3c65" stroke="#4f3c65"></path><path d="M0 22L-6 35L28 81Z" fill="#cf4868" stroke="#cf4868"></path><path d="M0 99L-6 35L0 114Z" fill="#e65457" stroke="#e65457"></path><path d="M0 114L-6 35L0 140Z" fill="#363653" stroke="#363653"></path><path d="M0 140L-6 35L0 190Z" fill="#b14472" stroke="#b14472"></path><path d="M0 190L-6 35L0 250Z" fill="#363653" stroke="#363653"></path><path d="M0 250L-6 35L0 342Z" fill="#f56841" stroke="#f56841"></path><path d="M0 342L-6 35L0 368Z" fill="#1d2228" stroke="#1d2228"></path><path d="M0 368L-6 35L0 379Z" fill="#6e4070" stroke="#6e4070"></path><path d="M0 379L-6 35L0 385Z" fill="#fb8122" stroke="#fb8122"></path><path d="M0 385L-6 35L0 540Z" fill="#fb8122" stroke="#fb8122"></path><path d="M44 0L0 22L28 81Z" fill="#b14472" stroke="#b14472"></path><path d="M-6 35L0 559L0 540Z" fill="#f56841" stroke="#f56841"></path><path d="M0 540L0 559L43 534Z" fill="#252d3e" stroke="#252d3e"></path><path d="M0 22L-5 0L-6 35Z" fill="#e65457" stroke="#e65457"></path><path d="M44 0L0 0L0 22Z" fill="#f56841" stroke="#f56841"></path><path d="M140 -43L0 0L44 0Z" fill="#904275" stroke="#904275"></path><path d="M140 -43L-5 0L0 0Z" fill="#363653" stroke="#363653"></path><path d="M0 0L-5 0L0 22Z" fill="#252d3e" stroke="#252d3e"></path></g></svg>